<svg width="40" height="40" viewBox="0 0 40 40" fill="none" xmlns="http://www.w3.org/2000/svg">
<g id="Container">
<g id="Container_2">
<mask id="path-1-inside-1_0_1" fill="white">
<path d="M-142.125 -36.5H183.125V97.2969H-142.125V-36.5Z"/>
</mask>
<path d="M183.125 97.2969H183.625V96.3058H183.125H182.625V97.2969H183.125ZM183.125 95.3147H183.625V93.3325H183.125H182.625V95.3147H183.125ZM183.125 92.3414H183.625V90.3593H183.125H182.625V92.3414H183.125ZM183.125 89.3682H183.625V87.386H183.125H182.625V89.3682H183.125ZM183.125 86.3949H183.625V84.4127H183.125H182.625V86.3949H183.125ZM183.125 83.4216H183.625V81.4395H183.125H182.625V83.4216H183.125ZM183.125 80.4484H183.625V78.4662H183.125H182.625V80.4484H183.125ZM183.125 77.4751H183.625V75.4929H183.125H182.625V77.4751H183.125ZM183.125 74.5018H183.625V72.5197H183.125H182.625V74.5018H183.125ZM183.125 71.5286H183.625V69.5464H183.125H182.625V71.5286H183.125ZM183.125 68.5553H183.625V66.5731H183.125H182.625V68.5553H183.125ZM183.125 65.5821H183.625V63.5999H183.125H182.625V65.5821H183.125ZM183.125 62.6088H183.625V60.6266H183.125H182.625V62.6088H183.125ZM183.125 59.6355H183.625V57.6534H183.125H182.625V59.6355H183.125ZM183.125 56.6623H183.625V54.6801H183.125H182.625V56.6623H183.125ZM183.125 53.689H183.625V51.7068H183.125H182.625V53.689H183.125ZM183.125 50.7157H183.625V48.7336H183.125H182.625V50.7157H183.125ZM183.125 47.7425H183.625V45.7603H183.125H182.625V47.7425H183.125ZM183.125 44.7692H183.625V42.787H183.125H182.625V44.7692H183.125ZM183.125 41.7959H183.625V39.8137H183.125H182.625V41.7959H183.125ZM183.125 38.8227H183.625V36.8405H183.125H182.625V38.8227H183.125ZM183.125 35.8494H183.625V33.8672H183.125H182.625V35.8494H183.125ZM183.125 32.8761H183.625V30.894H183.125H182.625V32.8761H183.125ZM183.125 29.9029H183.625V27.9207H183.125H182.625V29.9029H183.125ZM183.125 26.9296H183.625V24.9474H183.125H182.625V26.9296H183.125ZM183.125 23.9563H183.625V21.9742H183.125H182.625V23.9563H183.125ZM183.125 20.9831H183.625V19.0009H183.125H182.625V20.9831H183.125ZM183.125 18.0098H183.625V16.0276H183.125H182.625V18.0098H183.125ZM183.125 15.0365H183.625V13.0544H183.125H182.625V15.0365H183.125ZM183.125 12.0633H183.625V10.0811H183.125H182.625V12.0633H183.125ZM183.125 9.09H183.625V7.10782H183.125H182.625V9.09H183.125ZM183.125 6.11673H183.625V4.13455H183.125H182.625V6.11673H183.125ZM183.125 3.14346H183.625V1.16128H183.125H182.625V3.14346H183.125ZM183.125 0.1702H183.625V-1.81198H183.125H182.625V0.1702H183.125ZM183.125 -2.80307H183.625V-4.78525H183.125H182.625V-2.80307H183.125ZM183.125 -5.77634H183.625V-7.75852H183.125H182.625V-5.77634H183.125ZM183.125 -8.7496H183.625V-10.7318H183.125H182.625V-8.7496H183.125ZM183.125 -11.7229H183.625V-13.705H183.125H182.625V-11.7229H183.125ZM183.125 -14.6961H183.625V-16.6783H183.125H182.625V-14.6961H183.125ZM183.125 -17.6694H183.625V-19.6516H183.125H182.625V-17.6694H183.125ZM183.125 -20.6427H183.625V-22.6248H183.125H182.625V-20.6427H183.125ZM183.125 -23.6159H183.625V-25.5981H183.125H182.625V-23.6159H183.125ZM183.125 -26.5892H183.625V-28.5714H183.125H182.625V-26.5892H183.125ZM183.125 -29.5625H183.625V-31.5447H183.125H182.625V-29.5625H183.125ZM183.125 -32.5357H183.625V-34.5179H183.125H182.625V-32.5357H183.125ZM183.125 -35.509H183.625V-36.5H183.125H182.625V-35.509H183.125ZM183.125 97.2969H184.125V96.3058H183.125H182.125V97.2969H183.125ZM183.125 95.3147H184.125V93.3325H183.125H182.125V95.3147H183.125ZM183.125 92.3414H184.125V90.3593H183.125H182.125V92.3414H183.125ZM183.125 89.3682H184.125V87.386H183.125H182.125V89.3682H183.125ZM183.125 86.3949H184.125V84.4127H183.125H182.125V86.3949H183.125ZM183.125 83.4216H184.125V81.4395H183.125H182.125V83.4216H183.125ZM183.125 80.4484H184.125V78.4662H183.125H182.125V80.4484H183.125ZM183.125 77.4751H184.125V75.4929H183.125H182.125V77.4751H183.125ZM183.125 74.5018H184.125V72.5197H183.125H182.125V74.5018H183.125ZM183.125 71.5286H184.125V69.5464H183.125H182.125V71.5286H183.125ZM183.125 68.5553H184.125V66.5731H183.125H182.125V68.5553H183.125ZM183.125 65.5821H184.125V63.5999H183.125H182.125V65.5821H183.125ZM183.125 62.6088H184.125V60.6266H183.125H182.125V62.6088H183.125ZM183.125 59.6355H184.125V57.6534H183.125H182.125V59.6355H183.125ZM183.125 56.6623H184.125V54.6801H183.125H182.125V56.6623H183.125ZM183.125 53.689H184.125V51.7068H183.125H182.125V53.689H183.125ZM183.125 50.7157H184.125V48.7336H183.125H182.125V50.7157H183.125ZM183.125 47.7425H184.125V45.7603H183.125H182.125V47.7425H183.125ZM183.125 44.7692H184.125V42.787H183.125H182.125V44.7692H183.125ZM183.125 41.7959H184.125V39.8137H183.125H182.125V41.7959H183.125ZM183.125 38.8227H184.125V36.8405H183.125H182.125V38.8227H183.125ZM183.125 35.8494H184.125V33.8672H183.125H182.125V35.8494H183.125ZM183.125 32.8761H184.125V30.894H183.125H182.125V32.8761H183.125ZM183.125 29.9029H184.125V27.9207H183.125H182.125V29.9029H183.125ZM183.125 26.9296H184.125V24.9474H183.125H182.125V26.9296H183.125ZM183.125 23.9563H184.125V21.9742H183.125H182.125V23.9563H183.125ZM183.125 20.9831H184.125V19.0009H183.125H182.125V20.9831H183.125ZM183.125 18.0098H184.125V16.0276H183.125H182.125V18.0098H183.125ZM183.125 15.0365H184.125V13.0544H183.125H182.125V15.0365H183.125ZM183.125 12.0633H184.125V10.0811H183.125H182.125V12.0633H183.125ZM183.125 9.09H184.125V7.10782H183.125H182.125V9.09H183.125ZM183.125 6.11673H184.125V4.13455H183.125H182.125V6.11673H183.125ZM183.125 3.14346H184.125V1.16128H183.125H182.125V3.14346H183.125ZM183.125 0.1702H184.125V-1.81198H183.125H182.125V0.1702H183.125ZM183.125 -2.80307H184.125V-4.78525H183.125H182.125V-2.80307H183.125ZM183.125 -5.77634H184.125V-7.75852H183.125H182.125V-5.77634H183.125ZM183.125 -8.7496H184.125V-10.7318H183.125H182.125V-8.7496H183.125ZM183.125 -11.7229H184.125V-13.705H183.125H182.125V-11.7229H183.125ZM183.125 -14.6961H184.125V-16.6783H183.125H182.125V-14.6961H183.125ZM183.125 -17.6694H184.125V-19.6516H183.125H182.125V-17.6694H183.125ZM183.125 -20.6427H184.125V-22.6248H183.125H182.125V-20.6427H183.125ZM183.125 -23.6159H184.125V-25.5981H183.125H182.125V-23.6159H183.125ZM183.125 -26.5892H184.125V-28.5714H183.125H182.125V-26.5892H183.125ZM183.125 -29.5625H184.125V-31.5447H183.125H182.125V-29.5625H183.125ZM183.125 -32.5357H184.125V-34.5179H183.125H182.125V-32.5357H183.125ZM183.125 -35.509H184.125V-36.5H183.125H182.125V-35.509H183.125Z" fill="#646464" fill-opacity="0.2" mask="url(#path-1-inside-1_0_1)"/>
<g id="Container_3">
<g id="Container_4">
<g id="h2d-svg-use-0" clip-path="url(#clip0_0_1)">
<g id="Group">
<path id="Vector" d="M8.82172 9.97512L10.9637 16.5001H10.0457L9.60472 15.1051H7.11172L6.67872 16.5001H5.76172L7.90372 9.97512H8.82172ZM8.36272 11.1181L7.36372 14.3041H9.35272L8.36272 11.1181ZM12.1027 10.7851V9.97512H16.2507V10.7851H14.6037V15.6901H16.2507V16.5001H12.1017V15.6901H13.7487V10.7851H12.1027ZM21.4397 14.4751H22.2947C22.0697 15.8881 21.2237 16.6171 20.0267 16.6171C18.4427 16.6171 17.6867 15.2041 17.6867 13.2241C17.6867 11.1991 18.5327 9.84912 20.0897 9.84912C21.2147 9.84912 22.0607 10.7221 22.2767 12.0451H21.4037C21.2867 11.2981 20.8907 10.6501 20.0627 10.6501C19.1177 10.6501 18.5687 11.5321 18.5687 13.2241C18.5687 14.8351 19.0727 15.8251 20.0807 15.8251C20.9087 15.8251 21.3227 15.2671 21.4397 14.4751ZM23.9987 9.97512H25.6017C27.0327 9.97512 28.1307 10.3621 28.1307 11.9821C28.1307 13.6021 27.0327 13.9891 25.6017 13.9891H24.8547V16.5001H23.9997L23.9987 9.97512ZM25.7097 10.7851H24.8547V13.1791H25.7097C26.5827 13.1791 27.2487 13.0441 27.2487 11.9821C27.2487 10.9201 26.5827 10.7851 25.7097 10.7851ZM32.0947 9.97512L34.2367 16.5001H33.3187L32.8777 15.1051H30.3847L29.9527 16.5001H29.0347L31.1767 9.97512H32.0947ZM31.6357 11.1181L30.6367 14.3041H32.6257L31.6357 11.1181ZM14.3697 26.8431L13.6587 26.6721C12.7947 26.4831 12.0117 25.9431 12.0117 24.8991C12.0117 23.7741 12.9837 23.1081 14.1537 23.1081C15.1617 23.1081 16.1787 23.6481 16.3227 24.9441H15.4767C15.3777 24.1611 14.7027 23.9001 14.1087 23.9001C13.5147 23.9001 12.8937 24.1971 12.8937 24.8721C12.8937 25.4481 13.3077 25.7271 13.8387 25.8441L14.4867 25.9881C15.5307 26.2221 16.4577 26.6721 16.4577 27.9231C16.4577 29.1471 15.5127 29.8671 14.2527 29.8671C12.9207 29.8671 11.9667 29.0121 11.8947 27.7161H12.7407C12.8397 28.5891 13.4427 29.0751 14.2797 29.0751C14.9277 29.0751 15.5937 28.7421 15.5937 27.9861C15.5937 27.3021 15.0897 27.0141 14.3697 26.8431ZM19.9987 23.1081C21.6277 23.1081 22.4377 24.5121 22.4377 26.4831C22.4377 28.4541 21.6277 29.8671 19.9987 29.8671C18.3697 29.8671 17.5597 28.4541 17.5597 26.4831C17.5597 24.5121 18.3697 23.1081 19.9987 23.1081ZM19.9987 23.9001C18.9097 23.9001 18.4417 24.8181 18.4417 26.4831C18.4417 28.1481 18.9097 29.0751 19.9987 29.0751C21.0877 29.0751 21.5557 28.1391 21.5557 26.4831C21.5557 24.8271 21.0877 23.9001 19.9987 23.9001ZM27.2577 27.7251H28.1127C27.8877 29.1381 27.0417 29.8671 25.8447 29.8671C24.2607 29.8671 23.5047 28.4541 23.5047 26.4741C23.5047 24.4491 24.3507 23.0991 25.9077 23.0991C27.0327 23.0991 27.8787 23.9721 28.0947 25.2951H27.2217C27.1047 24.5481 26.7087 23.9001 25.8807 23.9001C24.9357 23.9001 24.3867 24.7821 24.3867 26.4741C24.3867 28.0851 24.8907 29.0751 25.8987 29.0751C26.7267 29.0751 27.1407 28.5171 27.2577 27.7251Z" fill="black" stroke="black" stroke-width="0.2" stroke-miterlimit="10"/>
<path id="Vector_2" d="M20 39.75C30.908 39.75 39.75 30.908 39.75 20C39.75 9.092 30.908 0.25 20 0.25C9.092 0.25 0.25 9.092 0.25 20C0.25 30.908 9.092 39.75 20 39.75Z" stroke="black" stroke-miterlimit="10"/>
<path id="Vector_3" opacity="0.5" d="M4.75 20H35.25" stroke="black" stroke-width="0.75" stroke-miterlimit="10"/>
</g>
</g>
</g>
</g>
</g>
</g>
<defs>
<clipPath id="clip0_0_1">
<rect width="40" height="40" fill="white"/>
</clipPath>
</defs>
</svg>
